<svg width="22" height="23" viewBox="0 0 22 23" fill="none" xmlns="http://www.w3.org/2000/svg">
<path d="M16 8C16 6.4087 15.3679 4.88258 14.2426 3.75736C13.1174 2.63214 11.5913 2 10 2C8.4087 2 6.88258 2.63214 5.75736 3.75736C4.63214 4.88258 4 6.4087 4 8C4 15 1 17 1 17H19C19 17 16 15 16 8Z" stroke="black" stroke-width="2" stroke-linecap="round" stroke-linejoin="round"/>
<path d="M11.73 21C11.5542 21.3031 11.3019 21.5547 10.9982 21.7295C10.6946 21.9044 10.3504 21.9965 10 21.9965C9.64964 21.9965 9.30541 21.9044 9.00179 21.7295C8.69818 21.5547 8.44583 21.3031 8.27002 21" stroke="black" stroke-width="2" stroke-linecap="round" stroke-linejoin="round"/>
<circle cx="16" cy="5" r="5" fill="#EC1C24"/>
</svg>
