<svg width="24" height="24" viewBox="0 0 24 24" xmlns="http://www.w3.org/2000/svg">

    <symbol viewBox="0 0 23 14" xmlns="http://www.w3.org/2000/svg" id="hamburgerMenu">
        <rect width="23" height="2"/>
        <rect y="4" width="18" height="2"/>
        <rect y="8" width="23" height="2"/>
        <rect y="12" width="18" height="2"/>
    </symbol>

    <symbol viewBox="0 0 24 14" xmlns="http://www.w3.org/2000/svg" id="dropdownButton">
        <path d="M2 2L11.2929 11.2929C11.6834 11.6834 12.3166 11.6834 12.7071 11.2929L22 2" fill="transparent" stroke="#767676" stroke-width="4" stroke-linecap="round"/>
    </symbol>

    <symbol viewBox="0 0 22 23" xmlns="http://www.w3.org/2000/svg" id="bell">
        <path d="M16 8C16 6.4087 15.3679 4.88258 14.2426 3.75736C13.1174 2.63214 11.5913 2 10 2C8.4087 2 6.88258 2.63214 5.75736 3.75736C4.63214 4.88258 4 6.4087 4 8C4 15 1 17 1 17H19C19 17 16 15 16 8Z" stroke-width="2" stroke-linecap="round" stroke-linejoin="round" fill="transparent" />
        <path d="M11.73 21C11.5542 21.3031 11.3019 21.5547 10.9982 21.7295C10.6946 21.9044 10.3504 21.9965 10 21.9965C9.64964 21.9965 9.30541 21.9044 9.00179 21.7295C8.69818 21.5547 8.44583 21.3031 8.27002 21" stroke-width="2" stroke-linecap="round" stroke-linejoin="round"/>
        <circle cx="16" cy="5" r="5" fill="#EC1C24" stroke="#EC1C24"/>
    </symbol>

    <symbol viewBox="0 0 24 24" xmlns="http://www.w3.org/2000/svg" id="search">
        <path d="M11 19C15.4183 19 19 15.4183 19 11C19 6.58172 15.4183 3 11 3C6.58172 3 3 6.58172 3 11C3 15.4183 6.58172 19 11 19Z" fill="transparent" stroke-width="2" stroke-linecap="round" stroke-linejoin="round"/>
        <path d="M21 21.0004L16.65 16.6504" fill="transparent" stroke-width="2" stroke-linecap="round" stroke-linejoin="round"/>
    </symbol>

    <symbol viewBox="0 0 24 24" xmlns="http://www.w3.org/2000/svg" id="location">
        <path d="M12 2C14.131 2 16 3.73 16 5.702C16 7.752 14.286 10.643 12 14.263C9.714 10.643 8 7.752 8 5.702C8 3.73 9.869 2 12 2ZM12 0C8.852 0 6 2.553 6 5.702C6 8.85 8.602 12.609 12 18C15.398 12.609 18 8.85 18 5.702C18 2.553 15.149 0 12 0ZM12 8C10.895 8 10 7.105 10 6C10 4.895 10.895 4 12 4C13.105 4 14 4.895 14 6C14 7.105 13.105 8 12 8ZM20 20C20 22.209 16.419 24 12 24C7.581 24 4 22.209 4 20C4 18.398 5.888 17.02 8.608 16.381L9.762 18.205C9.361 18.273 8.956 18.34 8.584 18.447C5.272 19.396 5.131 20.556 8.563 21.549C10.651 22.152 13.34 22.154 15.437 21.548C19.056 20.501 18.601 19.273 15.169 18.381C14.873 18.304 14.548 18.263 14.233 18.21L15.389 16.382C18.112 17.02 20 18.398 20 20Z"/>
    </symbol>

    <symbol viewBox="0 0 24 24" xmlns="http://www.w3.org/2000/svg" id="users">
        <path d="M17 21V19C17 17.9391 16.5786 16.9217 15.8284 16.1716C15.0783 15.4214 14.0609 15 13 15H5C3.93913 15 2.92172 15.4214 2.17157 16.1716C1.42143 16.9217 1 17.9391 1 19V21"  stroke-width="2" stroke-linecap="round" stroke-linejoin="round"/>
        <path d="M9 11C11.2091 11 13 9.20914 13 7C13 4.79086 11.2091 3 9 3C6.79086 3 5 4.79086 5 7C5 9.20914 6.79086 11 9 11Z"  stroke-width="2" stroke-linecap="round" stroke-linejoin="round"/>
        <path d="M23 20.9999V18.9999C22.9993 18.1136 22.7044 17.2527 22.1614 16.5522C21.6184 15.8517 20.8581 15.3515 20 15.1299"  stroke-width="2" stroke-linecap="round" stroke-linejoin="round"/>
        <path d="M16 3.12988C16.8604 3.35018 17.623 3.85058 18.1676 4.55219C18.7122 5.2538 19.0078 6.11671 19.0078 7.00488C19.0078 7.89305 18.7122 8.75596 18.1676 9.45757C17.623 10.1592 16.8604 10.6596 16 10.8799"  stroke-width="2" stroke-linecap="round" stroke-linejoin="round"/>
    </symbol>

    <symbol viewBox="0 0 24 24" xmlns="http://www.w3.org/2000/svg" id="management-system">
        <path d="M18 3C17.2044 3 16.4413 3.31607 15.8787 3.87868C15.3161 4.44129 15 5.20435 15 6V18C15 18.7956 15.3161 19.5587 15.8787 20.1213C16.4413 20.6839 17.2044 21 18 21C18.7956 21 19.5587 20.6839 20.1213 20.1213C20.6839 19.5587 21 18.7956 21 18C21 17.2044 20.6839 16.4413 20.1213 15.8787C19.5587 15.3161 18.7956 15 18 15H6C5.20435 15 4.44129 15.3161 3.87868 15.8787C3.31607 16.4413 3 17.2044 3 18C3 18.7956 3.31607 19.5587 3.87868 20.1213C4.44129 20.6839 5.20435 21 6 21C6.79565 21 7.55871 20.6839 8.12132 20.1213C8.68393 19.5587 9 18.7956 9 18V6C9 5.20435 8.68393 4.44129 8.12132 3.87868C7.55871 3.31607 6.79565 3 6 3C5.20435 3 4.44129 3.31607 3.87868 3.87868C3.31607 4.44129 3 5.20435 3 6C3 6.79565 3.31607 7.55871 3.87868 8.12132C4.44129 8.68393 5.20435 9 6 9H18C18.7956 9 19.5587 8.68393 20.1213 8.12132C20.6839 7.55871 21 6.79565 21 6C21 5.20435 20.6839 4.44129 20.1213 3.87868C19.5587 3.31607 18.7956 3 18 3Z"  stroke-width="2" stroke-linecap="round" stroke-linejoin="round"/>
    </symbol>

    <symbol viewBox="0 0 24 24" xmlns="http://www.w3.org/2000/svg" id="dashboard">
        <path d="M10 3H3V10H10V3Z" stroke-width="2" stroke-linecap="round" stroke-linejoin="round"/>
        <path d="M21 3H14V10H21V3Z" stroke-width="2" stroke-linecap="round" stroke-linejoin="round"/>
        <path d="M21 14H14V21H21V14Z" stroke-width="2" stroke-linecap="round" stroke-linejoin="round"/>
        <path d="M10 14H3V21H10V14Z" stroke-width="2" stroke-linecap="round" stroke-linejoin="round"/>
    </symbol>

    <symbol viewBox="0 0 24 25" xmlns="http://www.w3.org/2000/svg" id="settings">
        <g clip-path="url(#clip0_171_122)">
        <path d="M12 15.5C13.6569 15.5 15 14.1569 15 12.5C15 10.8431 13.6569 9.5 12 9.5C10.3431 9.5 9 10.8431 9 12.5C9 14.1569 10.3431 15.5 12 15.5Z"  stroke-width="2" stroke-linecap="round" stroke-linejoin="round"/>
        <path d="M19.4 15.5C19.2669 15.8016 19.2272 16.1362 19.286 16.4606C19.3448 16.785 19.4995 17.0843 19.73 17.32L19.79 17.38C19.976 17.5657 20.1235 17.7863 20.2241 18.0291C20.3248 18.2719 20.3766 18.5322 20.3766 18.795C20.3766 19.0578 20.3248 19.3181 20.2241 19.5609C20.1235 19.8037 19.976 20.0243 19.79 20.21C19.6043 20.396 19.3837 20.5435 19.1409 20.6441C18.8981 20.7448 18.6378 20.7966 18.375 20.7966C18.1122 20.7966 17.8519 20.7448 17.6091 20.6441C17.3663 20.5435 17.1457 20.396 16.96 20.21L16.9 20.15C16.6643 19.9195 16.365 19.7648 16.0406 19.706C15.7162 19.6472 15.3816 19.6869 15.08 19.82C14.7842 19.9468 14.532 20.1572 14.3543 20.4255C14.1766 20.6938 14.0813 21.0082 14.08 21.33V21.5C14.08 22.0304 13.8693 22.5391 13.4942 22.9142C13.1191 23.2893 12.6104 23.5 12.08 23.5C11.5496 23.5 11.0409 23.2893 10.6658 22.9142C10.2907 22.5391 10.08 22.0304 10.08 21.5V21.41C10.0723 21.079 9.96512 20.758 9.77251 20.4887C9.5799 20.2194 9.31074 20.0143 9 19.9C8.69838 19.7669 8.36381 19.7272 8.03941 19.786C7.71502 19.8448 7.41568 19.9995 7.18 20.23L7.12 20.29C6.93425 20.476 6.71368 20.6235 6.47088 20.7241C6.22808 20.8248 5.96783 20.8766 5.705 20.8766C5.44217 20.8766 5.18192 20.8248 4.93912 20.7241C4.69632 20.6235 4.47575 20.476 4.29 20.29C4.10405 20.1043 3.95653 19.8837 3.85588 19.6409C3.75523 19.3981 3.70343 19.1378 3.70343 18.875C3.70343 18.6122 3.75523 18.3519 3.85588 18.1091C3.95653 17.8663 4.10405 17.6457 4.29 17.46L4.35 17.4C4.58054 17.1643 4.73519 16.865 4.794 16.5406C4.85282 16.2162 4.81312 15.8816 4.68 15.58C4.55324 15.2842 4.34276 15.032 4.07447 14.8543C3.80618 14.6766 3.49179 14.5813 3.17 14.58H3C2.46957 14.58 1.96086 14.3693 1.58579 13.9942C1.21071 13.6191 1 13.1104 1 12.58C1 12.0496 1.21071 11.5409 1.58579 11.1658C1.96086 10.7907 2.46957 10.58 3 10.58H3.09C3.42099 10.5723 3.742 10.4651 4.0113 10.2725C4.28059 10.0799 4.48572 9.81074 4.6 9.5C4.73312 9.19838 4.77282 8.86381 4.714 8.53941C4.65519 8.21502 4.50054 7.91568 4.27 7.68L4.21 7.62C4.02405 7.43425 3.87653 7.21368 3.77588 6.97088C3.67523 6.72808 3.62343 6.46783 3.62343 6.205C3.62343 5.94217 3.67523 5.68192 3.77588 5.43912C3.87653 5.19632 4.02405 4.97575 4.21 4.79C4.39575 4.60405 4.61632 4.45653 4.85912 4.35588C5.10192 4.25523 5.36217 4.20343 5.625 4.20343C5.88783 4.20343 6.14808 4.25523 6.39088 4.35588C6.63368 4.45653 6.85425 4.60405 7.04 4.79L7.1 4.85C7.33568 5.08054 7.63502 5.23519 7.95941 5.294C8.28381 5.35282 8.61838 5.31312 8.92 5.18H9C9.29577 5.05324 9.54802 4.84276 9.72569 4.57447C9.90337 4.30618 9.99872 3.99179 10 3.67V3.5C10 2.96957 10.2107 2.46086 10.5858 2.08579C10.9609 1.71071 11.4696 1.5 12 1.5C12.5304 1.5 13.0391 1.71071 13.4142 2.08579C13.7893 2.46086 14 2.96957 14 3.5V3.59C14.0013 3.91179 14.0966 4.22618 14.2743 4.49447C14.452 4.76276 14.7042 4.97324 15 5.1C15.3016 5.23312 15.6362 5.27282 15.9606 5.214C16.285 5.15519 16.5843 5.00054 16.82 4.77L16.88 4.71C17.0657 4.52405 17.2863 4.37653 17.5291 4.27588C17.7719 4.17523 18.0322 4.12343 18.295 4.12343C18.5578 4.12343 18.8181 4.17523 19.0609 4.27588C19.3037 4.37653 19.5243 4.52405 19.71 4.71C19.896 4.89575 20.0435 5.11632 20.1441 5.35912C20.2448 5.60192 20.2966 5.86217 20.2966 6.125C20.2966 6.38783 20.2448 6.64808 20.1441 6.89088C20.0435 7.13368 19.896 7.35425 19.71 7.54L19.65 7.6C19.4195 7.83568 19.2648 8.13502 19.206 8.45941C19.1472 8.78381 19.1869 9.11838 19.32 9.42V9.5C19.4468 9.79577 19.6572 10.048 19.9255 10.2257C20.1938 10.4034 20.5082 10.4987 20.83 10.5H21C21.5304 10.5 22.0391 10.7107 22.4142 11.0858C22.7893 11.4609 23 11.9696 23 12.5C23 13.0304 22.7893 13.5391 22.4142 13.9142C22.0391 14.2893 21.5304 14.5 21 14.5H20.91C20.5882 14.5013 20.2738 14.5966 20.0055 14.7743C19.7372 14.952 19.5268 15.2042 19.4 15.5V15.5Z"  stroke-width="2" stroke-linecap="round" stroke-linejoin="round"/>
        </g>
        <defs>
        <clipPath id="clip0_171_122">
        <rect width="24" height="24" fill="white" transform="translate(0 0.5)"/>
        </clipPath>
        </defs>
    </symbol>

    <symbol viewBox="0 0 24 25" xmlns="http://www.w3.org/2000/svg" id="file">
        <path d="M22 19.5C22 20.0304 21.7893 20.5391 21.4142 20.9142C21.0391 21.2893 20.5304 21.5 20 21.5H4C3.46957 21.5 2.96086 21.2893 2.58579 20.9142C2.21071 20.5391 2 20.0304 2 19.5V5.5C2 4.96957 2.21071 4.46086 2.58579 4.08579C2.96086 3.71071 3.46957 3.5 4 3.5H9L11 6.5H20C20.5304 6.5 21.0391 6.71071 21.4142 7.08579C21.7893 7.46086 22 7.96957 22 8.5V19.5Z"  stroke-width="2" stroke-linecap="round" stroke-linejoin="round"/>
    </symbol>

    <symbol viewBox="0 0 24 25" xmlns="http://www.w3.org/2000/svg" id="phone">
        <path d="M22 17.4201V20.4201C22.0011 20.6986 21.9441 20.9743 21.8325 21.2294C21.7209 21.4846 21.5573 21.7137 21.3521 21.902C21.1468 22.0902 20.9046 22.2336 20.6407 22.3228C20.3769 22.412 20.0974 22.4452 19.82 22.4201C16.7428 22.0857 13.787 21.0342 11.19 19.3501C8.77382 17.8148 6.72533 15.7663 5.18999 13.3501C3.49997 10.7413 2.44824 7.77109 2.11999 4.6801C2.095 4.40356 2.12787 4.12486 2.21649 3.86172C2.30512 3.59859 2.44756 3.35679 2.63476 3.15172C2.82196 2.94665 3.0498 2.78281 3.30379 2.67062C3.55777 2.55843 3.83233 2.50036 4.10999 2.5001H7.10999C7.5953 2.49532 8.06579 2.66718 8.43376 2.98363C8.80173 3.30008 9.04207 3.73954 9.10999 4.2201C9.23662 5.18016 9.47144 6.12282 9.80999 7.0301C9.94454 7.38802 9.97366 7.77701 9.8939 8.15098C9.81415 8.52494 9.62886 8.86821 9.35999 9.1401L8.08999 10.4101C9.51355 12.9136 11.5864 14.9865 14.09 16.4101L15.36 15.1401C15.6319 14.8712 15.9751 14.6859 16.3491 14.6062C16.7231 14.5264 17.1121 14.5556 17.47 14.6901C18.3773 15.0286 19.3199 15.2635 20.28 15.3901C20.7658 15.4586 21.2094 15.7033 21.5265 16.0776C21.8437 16.4519 22.0122 16.9297 22 17.4201Z"  stroke-width="2" stroke-linecap="round" stroke-linejoin="round"/>
    </symbol>

    <symbol viewBox="0 0 24 24" xmlns="http://www.w3.org/2000/svg" id="brifcase">
        <path d="M20 7H4C2.89543 7 2 7.89543 2 9V19C2 20.1046 2.89543 21 4 21H20C21.1046 21 22 20.1046 22 19V9C22 7.89543 21.1046 7 20 7Z" stroke-width="2" stroke-linecap="round" stroke-linejoin="round"/>
        <path d="M16 21V5C16 4.46957 15.7893 3.96086 15.4142 3.58579C15.0391 3.21071 14.5304 3 14 3H10C9.46957 3 8.96086 3.21071 8.58579 3.58579C8.21071 3.96086 8 4.46957 8 5V21" stroke-width="2" stroke-linecap="round" stroke-linejoin="round"/>
    </symbol>

    <svg viewBox="0 0 23 14" xmlns="http://www.w3.org/2000/svg" id="close">
        <path d="M4.24 13L9.088 6.448L4.348 0.0399995H7.324L10.552 4.492L13.744 0.0399995H16.72L11.98 6.448L16.84 13H13.852L10.552 8.404L7.228 13H4.24Z" fill="black"/>
    </svg>


</svg>
