<svg width="24" height="24" viewBox="0 0 24 24" xmlns="http://www.w3.org/2000/svg">

    <symbol viewBox="0 0 23 14" xmlns="http://www.w3.org/2000/svg" id="hamburgerMenu">
        <rect width="23" height="2"/>
        <rect y="4" width="18" height="2"/>
        <rect y="8" width="23" height="2"/>
        <rect y="12" width="18" height="2"/>
    </symbol>

    <symbol viewBox="0 0 24 14" xmlns="http://www.w3.org/2000/svg" id="dropdownButton">
        <path d="M2 2L11.2929 11.2929C11.6834 11.6834 12.3166 11.6834 12.7071 11.2929L22 2" fill="transparent" stroke="#767676" stroke-width="4" stroke-linecap="round"/>
    </symbol>

    <symbol viewBox="0 0 22 23" xmlns="http://www.w3.org/2000/svg" id="bell">
        <path d="M16 8C16 6.4087 15.3679 4.88258 14.2426 3.75736C13.1174 2.63214 11.5913 2 10 2C8.4087 2 6.88258 2.63214 5.75736 3.75736C4.63214 4.88258 4 6.4087 4 8C4 15 1 17 1 17H19C19 17 16 15 16 8Z" stroke-width="2" stroke-linecap="round" stroke-linejoin="round" fill="transparent" />
        <path d="M11.73 21C11.5542 21.3031 11.3019 21.5547 10.9982 21.7295C10.6946 21.9044 10.3504 21.9965 10 21.9965C9.64964 21.9965 9.30541 21.9044 9.00179 21.7295C8.69818 21.5547 8.44583 21.3031 8.27002 21" stroke-width="2" stroke-linecap="round" stroke-linejoin="round"/>
        <circle cx="16" cy="5" r="5" fill="#EC1C24" stroke="#EC1C24"/>
    </symbol>

    <symbol viewBox="0 0 24 24" xmlns="http://www.w3.org/2000/svg" id="search">
        <path d="M11 19C15.4183 19 19 15.4183 19 11C19 6.58172 15.4183 3 11 3C6.58172 3 3 6.58172 3 11C3 15.4183 6.58172 19 11 19Z" fill="transparent" stroke-width="2" stroke-linecap="round" stroke-linejoin="round"/>
        <path d="M21 21.0004L16.65 16.6504" fill="transparent" stroke-width="2" stroke-linecap="round" stroke-linejoin="round"/>
    </symbol>


</svg>
