<svg width="24" height="24" viewBox="0 0 24 24" xmlns="http://www.w3.org/2000/svg">

    <symbol viewBox="0 0 23 14" xmlns="http://www.w3.org/2000/svg" id="hamburgerMenu">
        <rect width="23" height="2"/>
        <rect y="4" width="18" height="2"/>
        <rect y="8" width="23" height="2"/>
        <rect y="12" width="18" height="2"/>
    </symbol>

    <symbol viewBox="0 0 24 14" xmlns="http://www.w3.org/2000/svg" id="dropdownButton">
        <path d="M2 2L11.2929 11.2929C11.6834 11.6834 12.3166 11.6834 12.7071 11.2929L22 2" fill="transparent" stroke-width="4" stroke-linecap="round"/>
    </symbol>

    <symbol viewBox="0 0 22 23" xmlns="http://www.w3.org/2000/svg" id="bell">
        <path d="M16 8C16 6.4087 15.3679 4.88258 14.2426 3.75736C13.1174 2.63214 11.5913 2 10 2C8.4087 2 6.88258 2.63214 5.75736 3.75736C4.63214 4.88258 4 6.4087 4 8C4 15 1 17 1 17H19C19 17 16 15 16 8Z" stroke-width="2" stroke-linecap="round" stroke-linejoin="round" fill="transparent" />
        <path d="M11.73 21C11.5542 21.3031 11.3019 21.5547 10.9982 21.7295C10.6946 21.9044 10.3504 21.9965 10 21.9965C9.64964 21.9965 9.30541 21.9044 9.00179 21.7295C8.69818 21.5547 8.44583 21.3031 8.27002 21" stroke-width="2" stroke-linecap="round" stroke-linejoin="round"/>
        <circle cx="16" cy="5" r="5" fill="#EC1C24" stroke="#EC1C24"/>
    </symbol>

    <symbol viewBox="0 0 24 24" xmlns="http://www.w3.org/2000/svg" id="search">
        <path d="M11 19C15.4183 19 19 15.4183 19 11C19 6.58172 15.4183 3 11 3C6.58172 3 3 6.58172 3 11C3 15.4183 6.58172 19 11 19Z" fill="transparent" stroke-width="2" stroke-linecap="round" stroke-linejoin="round"/>
        <path d="M21 21.0004L16.65 16.6504" fill="transparent" stroke-width="2" stroke-linecap="round" stroke-linejoin="round"/>
    </symbol>

    <symbol viewBox="0 0 24 24" xmlns="http://www.w3.org/2000/svg" id="location">
        <path d="M12 2C14.131 2 16 3.73 16 5.702C16 7.752 14.286 10.643 12 14.263C9.714 10.643 8 7.752 8 5.702C8 3.73 9.869 2 12 2ZM12 0C8.852 0 6 2.553 6 5.702C6 8.85 8.602 12.609 12 18C15.398 12.609 18 8.85 18 5.702C18 2.553 15.149 0 12 0ZM12 8C10.895 8 10 7.105 10 6C10 4.895 10.895 4 12 4C13.105 4 14 4.895 14 6C14 7.105 13.105 8 12 8ZM20 20C20 22.209 16.419 24 12 24C7.581 24 4 22.209 4 20C4 18.398 5.888 17.02 8.608 16.381L9.762 18.205C9.361 18.273 8.956 18.34 8.584 18.447C5.272 19.396 5.131 20.556 8.563 21.549C10.651 22.152 13.34 22.154 15.437 21.548C19.056 20.501 18.601 19.273 15.169 18.381C14.873 18.304 14.548 18.263 14.233 18.21L15.389 16.382C18.112 17.02 20 18.398 20 20Z"/>
    </symbol>

    <symbol viewBox="0 0 24 24" xmlns="http://www.w3.org/2000/svg" id="users">
        <path d="M17 21V19C17 17.9391 16.5786 16.9217 15.8284 16.1716C15.0783 15.4214 14.0609 15 13 15H5C3.93913 15 2.92172 15.4214 2.17157 16.1716C1.42143 16.9217 1 17.9391 1 19V21"  stroke-width="2" stroke-linecap="round" stroke-linejoin="round"/>
        <path d="M9 11C11.2091 11 13 9.20914 13 7C13 4.79086 11.2091 3 9 3C6.79086 3 5 4.79086 5 7C5 9.20914 6.79086 11 9 11Z"  stroke-width="2" stroke-linecap="round" stroke-linejoin="round"/>
        <path d="M23 20.9999V18.9999C22.9993 18.1136 22.7044 17.2527 22.1614 16.5522C21.6184 15.8517 20.8581 15.3515 20 15.1299"  stroke-width="2" stroke-linecap="round" stroke-linejoin="round"/>
        <path d="M16 3.12988C16.8604 3.35018 17.623 3.85058 18.1676 4.55219C18.7122 5.2538 19.0078 6.11671 19.0078 7.00488C19.0078 7.89305 18.7122 8.75596 18.1676 9.45757C17.623 10.1592 16.8604 10.6596 16 10.8799"  stroke-width="2" stroke-linecap="round" stroke-linejoin="round"/>
    </symbol>

    <!-- <symbol viewBox="0 0 24 24" xmlns="http://www.w3.org/2000/svg" id="management-system">
        <path d="M18 3C17.2044 3 16.4413 3.31607 15.8787 3.87868C15.3161 4.44129 15 5.20435 15 6V18C15 18.7956 15.3161 19.5587 15.8787 20.1213C16.4413 20.6839 17.2044 21 18 21C18.7956 21 19.5587 20.6839 20.1213 20.1213C20.6839 19.5587 21 18.7956 21 18C21 17.2044 20.6839 16.4413 20.1213 15.8787C19.5587 15.3161 18.7956 15 18 15H6C5.20435 15 4.44129 15.3161 3.87868 15.8787C3.31607 16.4413 3 17.2044 3 18C3 18.7956 3.31607 19.5587 3.87868 20.1213C4.44129 20.6839 5.20435 21 6 21C6.79565 21 7.55871 20.6839 8.12132 20.1213C8.68393 19.5587 9 18.7956 9 18V6C9 5.20435 8.68393 4.44129 8.12132 3.87868C7.55871 3.31607 6.79565 3 6 3C5.20435 3 4.44129 3.31607 3.87868 3.87868C3.31607 4.44129 3 5.20435 3 6C3 6.79565 3.31607 7.55871 3.87868 8.12132C4.44129 8.68393 5.20435 9 6 9H18C18.7956 9 19.5587 8.68393 20.1213 8.12132C20.6839 7.55871 21 6.79565 21 6C21 5.20435 20.6839 4.44129 20.1213 3.87868C19.5587 3.31607 18.7956 3 18 3Z"  stroke-width="2" stroke-linecap="round" stroke-linejoin="round"/>
    </symbol> -->

    <symbol viewBox="0 0 24 24" xmlns="http://www.w3.org/2000/svg" id="dashboard">
        <path d="M10 3H3V10H10V3Z" stroke-width="2" stroke-linecap="round" stroke-linejoin="round"/>
        <path d="M21 3H14V10H21V3Z" stroke-width="2" stroke-linecap="round" stroke-linejoin="round"/>
        <path d="M21 14H14V21H21V14Z" stroke-width="2" stroke-linecap="round" stroke-linejoin="round"/>
        <path d="M10 14H3V21H10V14Z" stroke-width="2" stroke-linecap="round" stroke-linejoin="round"/>
    </symbol>

    <symbol viewBox="0 0 24 25" xmlns="http://www.w3.org/2000/svg" id="settings">
        <g clip-path="url(#clip0_171_122)">
        <path d="M12 15.5C13.6569 15.5 15 14.1569 15 12.5C15 10.8431 13.6569 9.5 12 9.5C10.3431 9.5 9 10.8431 9 12.5C9 14.1569 10.3431 15.5 12 15.5Z"  stroke-width="2" stroke-linecap="round" stroke-linejoin="round"/>
        <path d="M19.4 15.5C19.2669 15.8016 19.2272 16.1362 19.286 16.4606C19.3448 16.785 19.4995 17.0843 19.73 17.32L19.79 17.38C19.976 17.5657 20.1235 17.7863 20.2241 18.0291C20.3248 18.2719 20.3766 18.5322 20.3766 18.795C20.3766 19.0578 20.3248 19.3181 20.2241 19.5609C20.1235 19.8037 19.976 20.0243 19.79 20.21C19.6043 20.396 19.3837 20.5435 19.1409 20.6441C18.8981 20.7448 18.6378 20.7966 18.375 20.7966C18.1122 20.7966 17.8519 20.7448 17.6091 20.6441C17.3663 20.5435 17.1457 20.396 16.96 20.21L16.9 20.15C16.6643 19.9195 16.365 19.7648 16.0406 19.706C15.7162 19.6472 15.3816 19.6869 15.08 19.82C14.7842 19.9468 14.532 20.1572 14.3543 20.4255C14.1766 20.6938 14.0813 21.0082 14.08 21.33V21.5C14.08 22.0304 13.8693 22.5391 13.4942 22.9142C13.1191 23.2893 12.6104 23.5 12.08 23.5C11.5496 23.5 11.0409 23.2893 10.6658 22.9142C10.2907 22.5391 10.08 22.0304 10.08 21.5V21.41C10.0723 21.079 9.96512 20.758 9.77251 20.4887C9.5799 20.2194 9.31074 20.0143 9 19.9C8.69838 19.7669 8.36381 19.7272 8.03941 19.786C7.71502 19.8448 7.41568 19.9995 7.18 20.23L7.12 20.29C6.93425 20.476 6.71368 20.6235 6.47088 20.7241C6.22808 20.8248 5.96783 20.8766 5.705 20.8766C5.44217 20.8766 5.18192 20.8248 4.93912 20.7241C4.69632 20.6235 4.47575 20.476 4.29 20.29C4.10405 20.1043 3.95653 19.8837 3.85588 19.6409C3.75523 19.3981 3.70343 19.1378 3.70343 18.875C3.70343 18.6122 3.75523 18.3519 3.85588 18.1091C3.95653 17.8663 4.10405 17.6457 4.29 17.46L4.35 17.4C4.58054 17.1643 4.73519 16.865 4.794 16.5406C4.85282 16.2162 4.81312 15.8816 4.68 15.58C4.55324 15.2842 4.34276 15.032 4.07447 14.8543C3.80618 14.6766 3.49179 14.5813 3.17 14.58H3C2.46957 14.58 1.96086 14.3693 1.58579 13.9942C1.21071 13.6191 1 13.1104 1 12.58C1 12.0496 1.21071 11.5409 1.58579 11.1658C1.96086 10.7907 2.46957 10.58 3 10.58H3.09C3.42099 10.5723 3.742 10.4651 4.0113 10.2725C4.28059 10.0799 4.48572 9.81074 4.6 9.5C4.73312 9.19838 4.77282 8.86381 4.714 8.53941C4.65519 8.21502 4.50054 7.91568 4.27 7.68L4.21 7.62C4.02405 7.43425 3.87653 7.21368 3.77588 6.97088C3.67523 6.72808 3.62343 6.46783 3.62343 6.205C3.62343 5.94217 3.67523 5.68192 3.77588 5.43912C3.87653 5.19632 4.02405 4.97575 4.21 4.79C4.39575 4.60405 4.61632 4.45653 4.85912 4.35588C5.10192 4.25523 5.36217 4.20343 5.625 4.20343C5.88783 4.20343 6.14808 4.25523 6.39088 4.35588C6.63368 4.45653 6.85425 4.60405 7.04 4.79L7.1 4.85C7.33568 5.08054 7.63502 5.23519 7.95941 5.294C8.28381 5.35282 8.61838 5.31312 8.92 5.18H9C9.29577 5.05324 9.54802 4.84276 9.72569 4.57447C9.90337 4.30618 9.99872 3.99179 10 3.67V3.5C10 2.96957 10.2107 2.46086 10.5858 2.08579C10.9609 1.71071 11.4696 1.5 12 1.5C12.5304 1.5 13.0391 1.71071 13.4142 2.08579C13.7893 2.46086 14 2.96957 14 3.5V3.59C14.0013 3.91179 14.0966 4.22618 14.2743 4.49447C14.452 4.76276 14.7042 4.97324 15 5.1C15.3016 5.23312 15.6362 5.27282 15.9606 5.214C16.285 5.15519 16.5843 5.00054 16.82 4.77L16.88 4.71C17.0657 4.52405 17.2863 4.37653 17.5291 4.27588C17.7719 4.17523 18.0322 4.12343 18.295 4.12343C18.5578 4.12343 18.8181 4.17523 19.0609 4.27588C19.3037 4.37653 19.5243 4.52405 19.71 4.71C19.896 4.89575 20.0435 5.11632 20.1441 5.35912C20.2448 5.60192 20.2966 5.86217 20.2966 6.125C20.2966 6.38783 20.2448 6.64808 20.1441 6.89088C20.0435 7.13368 19.896 7.35425 19.71 7.54L19.65 7.6C19.4195 7.83568 19.2648 8.13502 19.206 8.45941C19.1472 8.78381 19.1869 9.11838 19.32 9.42V9.5C19.4468 9.79577 19.6572 10.048 19.9255 10.2257C20.1938 10.4034 20.5082 10.4987 20.83 10.5H21C21.5304 10.5 22.0391 10.7107 22.4142 11.0858C22.7893 11.4609 23 11.9696 23 12.5C23 13.0304 22.7893 13.5391 22.4142 13.9142C22.0391 14.2893 21.5304 14.5 21 14.5H20.91C20.5882 14.5013 20.2738 14.5966 20.0055 14.7743C19.7372 14.952 19.5268 15.2042 19.4 15.5V15.5Z"  stroke-width="2" stroke-linecap="round" stroke-linejoin="round"/>
        </g>
        <defs>
        <clipPath id="clip0_171_122">
        <rect width="24" height="24" fill="white" transform="translate(0 0.5)"/>
        </clipPath>
        </defs>
    </symbol>

    <symbol viewBox="0 0 24 25" xmlns="http://www.w3.org/2000/svg" id="file">
        <path d="M22 19.5C22 20.0304 21.7893 20.5391 21.4142 20.9142C21.0391 21.2893 20.5304 21.5 20 21.5H4C3.46957 21.5 2.96086 21.2893 2.58579 20.9142C2.21071 20.5391 2 20.0304 2 19.5V5.5C2 4.96957 2.21071 4.46086 2.58579 4.08579C2.96086 3.71071 3.46957 3.5 4 3.5H9L11 6.5H20C20.5304 6.5 21.0391 6.71071 21.4142 7.08579C21.7893 7.46086 22 7.96957 22 8.5V19.5Z"  stroke-width="2" stroke-linecap="round" stroke-linejoin="round"/>
    </symbol>

    <symbol viewBox="0 0 24 25" xmlns="http://www.w3.org/2000/svg" id="phone">
        <path d="M22 17.4201V20.4201C22.0011 20.6986 21.9441 20.9743 21.8325 21.2294C21.7209 21.4846 21.5573 21.7137 21.3521 21.902C21.1468 22.0902 20.9046 22.2336 20.6407 22.3228C20.3769 22.412 20.0974 22.4452 19.82 22.4201C16.7428 22.0857 13.787 21.0342 11.19 19.3501C8.77382 17.8148 6.72533 15.7663 5.18999 13.3501C3.49997 10.7413 2.44824 7.77109 2.11999 4.6801C2.095 4.40356 2.12787 4.12486 2.21649 3.86172C2.30512 3.59859 2.44756 3.35679 2.63476 3.15172C2.82196 2.94665 3.0498 2.78281 3.30379 2.67062C3.55777 2.55843 3.83233 2.50036 4.10999 2.5001H7.10999C7.5953 2.49532 8.06579 2.66718 8.43376 2.98363C8.80173 3.30008 9.04207 3.73954 9.10999 4.2201C9.23662 5.18016 9.47144 6.12282 9.80999 7.0301C9.94454 7.38802 9.97366 7.77701 9.8939 8.15098C9.81415 8.52494 9.62886 8.86821 9.35999 9.1401L8.08999 10.4101C9.51355 12.9136 11.5864 14.9865 14.09 16.4101L15.36 15.1401C15.6319 14.8712 15.9751 14.6859 16.3491 14.6062C16.7231 14.5264 17.1121 14.5556 17.47 14.6901C18.3773 15.0286 19.3199 15.2635 20.28 15.3901C20.7658 15.4586 21.2094 15.7033 21.5265 16.0776C21.8437 16.4519 22.0122 16.9297 22 17.4201Z"  stroke-width="2" stroke-linecap="round" stroke-linejoin="round"/>
    </symbol>

    <symbol viewBox="0 0 24 24" xmlns="http://www.w3.org/2000/svg" id="brifcase">
        <path d="M20 7H4C2.89543 7 2 7.89543 2 9V19C2 20.1046 2.89543 21 4 21H20C21.1046 21 22 20.1046 22 19V9C22 7.89543 21.1046 7 20 7Z" stroke-width="2" stroke-linecap="round" stroke-linejoin="round"/>
        <path d="M16 21V5C16 4.46957 15.7893 3.96086 15.4142 3.58579C15.0391 3.21071 14.5304 3 14 3H10C9.46957 3 8.96086 3.21071 8.58579 3.58579C8.21071 3.96086 8 4.46957 8 5V21" stroke-width="2" stroke-linecap="round" stroke-linejoin="round"/>
    </symbol>

    <symbol viewBox="0 0 23 14" xmlns="http://www.w3.org/2000/svg" id="close">
        <path d="M4.24 13L9.088 6.448L4.348 0.0399995H7.324L10.552 4.492L13.744 0.0399995H16.72L11.98 6.448L16.84 13H13.852L10.552 8.404L7.228 13H4.24Z" fill="black"/>
    </symbol>

    <symbol viewBox="0 0 64 42" xmlns="http://www.w3.org/2000/svg" id="dinnerClub">
        <path fill-rule="evenodd" clip-rule="evenodd" d="M0 3C0 1.34315 1.34315 0 3 0H61C62.6569 0 64 1.34315 64 3V39C64 40.6569 62.6569 42 61 42H3C1.34315 42 0 40.6569 0 39V3Z" fill="#F4F6F7"/>
        <path fill-rule="evenodd" clip-rule="evenodd" d="M0 3C0 1.34315 1.34315 0 3 0H61C62.6569 0 64 1.34315 64 3V39C64 40.6569 62.6569 42 61 42H3C1.34315 42 0 40.6569 0 39V3Z" fill="#E5E5E5" fill-opacity="0.01"/>
        <path fill-rule="evenodd" clip-rule="evenodd" d="M34.6268 30.9604C40.033 30.9865 44.9674 26.5112 44.9674 21.0669C44.9674 15.1133 40.033 10.998 34.6268 11H29.9741C24.5031 10.998 20 15.1145 20 21.0669C20 26.5124 24.5031 30.9865 29.9741 30.9604H34.6268Z" fill="url(#paint0_linear_148_733)"/>
        <path fill-rule="evenodd" clip-rule="evenodd" d="M29.9933 11.832C24.9941 11.8336 20.9431 15.9227 20.9419 20.9695C20.9431 26.0154 24.9941 30.1041 29.9933 30.1057C34.9937 30.1041 39.0455 26.0154 39.0463 20.9695C39.0455 15.9227 34.9937 11.8336 29.9933 11.832ZM24.2559 20.9695C24.2606 18.5034 25.7869 16.4004 27.9391 15.5647V26.373C25.7869 25.5378 24.2605 23.436 24.2559 20.9695ZM32.0467 26.3754V15.5643C34.1997 16.398 35.7284 18.5022 35.7323 20.9695C35.7284 23.4376 34.1997 25.5401 32.0467 26.3754Z" fill="#F4F6F7"/>
        <defs>
        <linearGradient id="paint0_linear_148_733" x1="50.1487" y1="27.1405" x2="43.7455" y2="6.2151" gradientUnits="userSpaceOnUse">
        <stop stop-color="#009BE0"/>
        <stop offset="1" stop-color="#006BA8"/>
        </linearGradient>
        </defs>
    </symbol>

    <symbol viewBox="0 0 64 42" xmlns="http://www.w3.org/2000/svg" id="discoverCard">
        <path fill-rule="evenodd" clip-rule="evenodd" d="M0 3C0 1.34315 1.34315 0 3 0H61C62.6569 0 64 1.34315 64 3V39C64 40.6569 62.6569 42 61 42H3C1.34315 42 0 40.6569 0 39V3Z" fill="url(#paint0_linear_148_715)"/>
        <path fill-rule="evenodd" clip-rule="evenodd" d="M0 3C0 1.34315 1.34315 0 3 0H61C62.6569 0 64 1.34315 64 3V39C64 40.6569 62.6569 42 61 42H3C1.34315 42 0 40.6569 0 39V3Z" fill="#E5E5E5" fill-opacity="0.01"/>
        <path fill-rule="evenodd" clip-rule="evenodd" d="M12.7791 22.782C12.3288 23.1914 11.7435 23.37 10.8173 23.37H10.4325V18.4794H10.8173C11.7435 18.4794 12.3058 18.6463 12.7791 19.0777C13.2749 19.5217 13.573 20.2103 13.573 20.9186C13.573 21.6286 13.2749 22.338 12.7791 22.782ZM11.1044 17.2266H9V24.6217H11.0933C12.2064 24.6217 13.0102 24.3577 13.7156 23.768C14.5541 23.07 15.0499 22.0177 15.0499 20.9294C15.0499 18.7468 13.4293 17.2266 11.1044 17.2266Z" fill="#212D34"/>
        <path fill-rule="evenodd" clip-rule="evenodd" d="M15.7095 24.622H17.1431V17.2266H15.7095V24.622Z" fill="#212D34"/>
        <path fill-rule="evenodd" clip-rule="evenodd" d="M20.6487 20.0645C19.7883 19.7442 19.5359 19.5331 19.5359 19.1333C19.5359 18.6676 19.9859 18.3136 20.6038 18.3136C21.0332 18.3136 21.3864 18.4913 21.7598 18.9125L22.51 17.9242C21.8935 17.3816 21.1561 17.1045 20.3503 17.1045C19.0498 17.1045 18.0579 18.0131 18.0579 19.2233C18.0579 20.2422 18.5196 20.7639 19.8661 21.2513C20.4275 21.4508 20.7131 21.5833 20.8571 21.6725C21.1436 21.8608 21.287 22.1273 21.287 22.4379C21.287 23.0371 20.8137 23.4811 20.1739 23.4811C19.4902 23.4811 18.9393 23.1368 18.6094 22.4945L17.6831 23.3919C18.3436 24.3676 19.1369 24.7999 20.2279 24.7999C21.7175 24.7999 22.7627 23.8031 22.7627 22.3716C22.7627 21.1965 22.2794 20.6648 20.6487 20.0645Z" fill="#212D34"/>
        <path fill-rule="evenodd" clip-rule="evenodd" d="M23.2148 20.9296C23.2148 23.1033 24.9112 24.7887 27.0942 24.7887C27.7112 24.7887 28.2399 24.6667 28.8916 24.3579V22.6599C28.3186 23.237 27.8109 23.4699 27.1609 23.4699C25.717 23.4699 24.6922 22.4164 24.6922 20.9187C24.6922 19.499 25.7494 18.379 27.0942 18.379C27.7779 18.379 28.2956 18.6244 28.8916 19.211V17.5139C28.2624 17.1927 27.745 17.0596 27.128 17.0596C24.956 17.0596 23.2148 18.7793 23.2148 20.9296Z" fill="#212D34"/>
        <path fill-rule="evenodd" clip-rule="evenodd" d="M40.2585 22.194L38.2987 17.2266H36.7324L39.8513 24.8117H40.6228L43.798 17.2266H42.2439L40.2585 22.194Z" fill="#212D34"/>
        <path fill-rule="evenodd" clip-rule="evenodd" d="M44.4463 24.622H48.5119V23.37H45.8788V21.3737H48.4151V20.1211H45.8788V18.4797H48.5119V17.2266H44.4463V24.622Z" fill="#212D34"/>
        <path fill-rule="evenodd" clip-rule="evenodd" d="M51.3122 20.6314H50.8934V18.3917H51.3349C52.228 18.3917 52.7132 18.768 52.7132 19.4877C52.7132 20.2311 52.228 20.6314 51.3122 20.6314ZM54.1884 19.41C54.1884 18.0254 53.2405 17.2266 51.5874 17.2266H49.4614V24.622H50.8934V21.6511H51.0805L53.0648 24.622H54.8278L52.5139 21.5066C53.5938 21.2854 54.1884 20.5423 54.1884 19.41Z" fill="#212D34"/>
        <g filter="url(#filter0_i_148_715)">
        <path fill-rule="evenodd" clip-rule="evenodd" d="M37.1796 20.9496C37.1796 23.1225 35.429 24.8839 33.2696 24.8839C31.1101 24.8839 29.3599 23.1225 29.3599 20.9496C29.3599 18.7768 31.1101 17.0156 33.2696 17.0156C35.429 17.0156 37.1796 18.7768 37.1796 20.9496Z" fill="url(#paint1_linear_148_715)"/>
        </g>
        <defs>
        <filter id="filter0_i_148_715" x="29.3599" y="17.0156" width="7.81982" height="7.86816" filterUnits="userSpaceOnUse" color-interpolation-filters="sRGB">
        <feFlood flood-opacity="0" result="BackgroundImageFix"/>
        <feBlend mode="normal" in="SourceGraphic" in2="BackgroundImageFix" result="shape"/>
        <feColorMatrix in="SourceAlpha" type="matrix" values="0 0 0 0 0 0 0 0 0 0 0 0 0 0 0 0 0 0 127 0" result="hardAlpha"/>
        <feOffset dx="1" dy="1"/>
        <feComposite in2="hardAlpha" operator="arithmetic" k2="-1" k3="1"/>
        <feColorMatrix type="matrix" values="0 0 0 0 0.314068 0 0 0 0 0.00146228 0 0 0 0 0.00146228 0 0 0 0.5 0"/>
        <feBlend mode="normal" in2="shape" result="effect1_innerShadow_148_715"/>
        </filter>
        <linearGradient id="paint0_linear_148_715" x1="-32" y1="21" x2="6.53106" y2="79.714" gradientUnits="userSpaceOnUse">
        <stop stop-color="#EDF1F3"/>
        <stop offset="1" stop-color="#D3DADF"/>
        </linearGradient>
        <linearGradient id="paint1_linear_148_715" x1="38.0592" y1="21.7017" x2="33.4196" y2="16.2144" gradientUnits="userSpaceOnUse">
        <stop stop-color="#FFA700"/>
        <stop offset="1" stop-color="#E75A10"/>
        </linearGradient>
        </defs>
    </symbol>

    <symbol viewBox="0 0 64 42" xmlns="http://www.w3.org/2000/svg" id="jcbCard">
        <path fill-rule="evenodd" clip-rule="evenodd" d="M0 3C0 1.34315 1.34315 0 3 0H61C62.6569 0 64 1.34315 64 3V39C64 40.6569 62.6569 42 61 42H3C1.34315 42 0 40.6569 0 39V3Z" fill="#F4F6F7"/>
        <path fill-rule="evenodd" clip-rule="evenodd" d="M0 3C0 1.34315 1.34315 0 3 0H61C62.6569 0 64 1.34315 64 3V39C64 40.6569 62.6569 42 61 42H3C1.34315 42 0 40.6569 0 39V3Z" fill="#E5E5E5" fill-opacity="0.01"/>
        <path fill-rule="evenodd" clip-rule="evenodd" d="M40.4526 11C40.2517 11.0006 40.0514 11.0074 39.8542 11.03C39.0828 11.1181 38.3571 11.5049 37.8359 12.1017C37.4493 12.5445 37.1808 13.0928 37.067 13.6792C37.0108 13.9686 37.0037 14.2588 37.0037 14.5521V16.4989V17.4427V17.72C37.0037 17.7942 36.9866 17.8001 37.0654 17.8001H38.2997H39.5295H40.7667C41.1706 17.8001 41.5778 17.7843 41.9805 17.8223C42.3773 17.8598 42.7812 17.9772 43.1021 18.2306C43.5534 18.5871 43.7369 19.202 43.5826 19.7676C43.4346 20.3106 42.9908 20.6747 42.4835 20.8258C42.4273 20.8426 42.3705 20.8569 42.3133 20.8692C42.2801 20.8763 42.2353 20.875 42.2051 20.8896C42.1903 20.8967 42.1524 20.9056 42.1802 20.9331C42.1871 20.9399 42.2165 20.9399 42.2381 20.9397C42.247 20.9396 42.2546 20.9396 42.2589 20.9399C42.4181 20.9558 42.5765 20.9845 42.731 21.0283C43.2033 21.1622 43.6619 21.45 43.8808 21.9225C44.1398 22.4816 44.0077 23.1742 43.5893 23.6079C43.2597 23.9496 42.7996 24.124 42.3442 24.1818C42.1159 24.2107 41.8859 24.2048 41.6563 24.2048H40.4191H39.1818H37.952H37.3333H37.1787C37.1434 24.2048 37.0437 24.1866 37.0148 24.2048C36.9979 24.2155 37.0037 24.231 37.0037 24.2592V25.4473V27.5439V29.6625V30.9166C37.0037 30.9292 36.9954 30.9841 37.0037 30.9943C37.0135 31.0062 37.0965 30.9957 37.1168 30.9957H37.2715H37.8901H39.1199H40.3572H41.5905C42.3252 30.9957 43.0248 30.7976 43.6202 30.3347C44.4278 29.7069 44.9047 28.7087 44.9088 27.6612C44.909 27.6207 44.9091 27.5801 44.9091 27.5396V27.4803C44.909 27.3906 44.9088 27.3008 44.9088 27.2111V26.1069C44.9088 25.5723 44.9088 25.0377 44.9088 24.5032C44.9088 23.8465 44.9088 23.1899 44.9088 22.5332C44.9088 21.8087 44.9088 21.084 44.9088 20.3594C44.9088 19.6096 44.9088 18.8597 44.9088 18.1099C44.9088 17.3868 44.9088 16.6638 44.9088 15.9407C44.9088 15.296 44.9088 14.6513 44.9088 14.0065C44.9088 13.4834 44.9088 12.9604 44.9088 12.4373V11.3925C44.9088 11.2649 44.9088 11.1373 44.9088 11.0097H44.8962C44.5031 11.0103 44.1098 11.0097 43.7167 11.0097H42.4835H41.2462C41.0018 11.0097 40.7533 11.0007 40.5056 11H40.4526ZM38.5506 18.8121C38.5406 18.8351 38.5506 18.886 38.5506 18.9108V19.7975V20.2119C38.5506 20.2465 38.5346 20.3654 38.5589 20.383C38.5797 20.398 38.6696 20.383 38.6963 20.383H38.8448H39.1305H39.698C39.8844 20.383 40.0711 20.3864 40.2574 20.383C40.4882 20.3788 40.7118 20.3095 40.8758 20.1397C41.0615 19.9475 41.1279 19.6649 41.0714 19.4056C41.0457 19.2908 40.996 19.1833 40.9228 19.0913C40.7823 18.9151 40.573 18.8175 40.3514 18.7994C40.2461 18.7908 40.1398 18.7948 40.0343 18.7948H39.4668H38.8882H38.6065C38.5913 18.7948 38.5811 18.7934 38.5737 18.7934C38.5625 18.7934 38.5575 18.7966 38.5506 18.8121ZM39.7698 21.4233H38.5503C38.5503 21.4396 38.5503 21.456 38.5503 21.4724V22.3592V22.8828V23.074C38.5503 23.1013 38.5394 23.1589 38.5503 23.184C38.5667 23.222 38.7182 23.2006 38.7668 23.2006H39.0754H39.6853H40.2984C40.4977 23.2006 40.6888 23.1877 40.8655 23.078C41.0801 22.9447 41.2263 22.7119 41.263 22.4525C41.3051 22.156 41.2096 21.8491 40.9966 21.6479C40.8242 21.485 40.6104 21.4251 40.3831 21.4233C40.3148 21.4227 40.2467 21.4225 40.1786 21.4225C40.0423 21.4225 39.906 21.4233 39.7698 21.4233Z" fill="url(#paint0_linear_148_695)"/>
        <mask id="mask0_148_695" style="mask-type:alpha" maskUnits="userSpaceOnUse" x="37" y="11" width="8" height="20">
        <path fill-rule="evenodd" clip-rule="evenodd" d="M40.4526 11C40.2517 11.0006 40.0514 11.0074 39.8542 11.03C39.0828 11.1181 38.3571 11.5049 37.8359 12.1017C37.4493 12.5445 37.1808 13.0928 37.067 13.6792C37.0108 13.9686 37.0037 14.2588 37.0037 14.5521V16.4989V17.4427V17.72C37.0037 17.7942 36.9866 17.8001 37.0654 17.8001H38.2997H39.5295H40.7667C41.1706 17.8001 41.5778 17.7843 41.9805 17.8223C42.3773 17.8598 42.7812 17.9772 43.1021 18.2306C43.5534 18.5871 43.7369 19.202 43.5826 19.7676C43.4346 20.3106 42.9908 20.6747 42.4835 20.8258C42.4273 20.8426 42.3705 20.8569 42.3133 20.8692C42.2801 20.8763 42.2353 20.875 42.2051 20.8896C42.1903 20.8967 42.1524 20.9056 42.1802 20.9331C42.1871 20.9399 42.2165 20.9399 42.2381 20.9397C42.247 20.9396 42.2546 20.9396 42.2589 20.9399C42.4181 20.9558 42.5765 20.9845 42.731 21.0283C43.2033 21.1622 43.6619 21.45 43.8808 21.9225C44.1398 22.4816 44.0077 23.1742 43.5893 23.6079C43.2597 23.9496 42.7996 24.124 42.3442 24.1818C42.1159 24.2107 41.8859 24.2048 41.6563 24.2048H40.4191H39.1818H37.952H37.3333H37.1787C37.1434 24.2048 37.0437 24.1866 37.0148 24.2048C36.9979 24.2155 37.0037 24.231 37.0037 24.2592V25.4473V27.5439V29.6625V30.9166C37.0037 30.9292 36.9954 30.9841 37.0037 30.9943C37.0135 31.0062 37.0965 30.9957 37.1168 30.9957H37.2715H37.8901H39.1199H40.3572H41.5905C42.3252 30.9957 43.0248 30.7976 43.6202 30.3347C44.4278 29.7069 44.9047 28.7087 44.9088 27.6612C44.909 27.6207 44.9091 27.5801 44.9091 27.5396V27.4803C44.909 27.3906 44.9088 27.3008 44.9088 27.2111V26.1069C44.9088 25.5723 44.9088 25.0377 44.9088 24.5032C44.9088 23.8465 44.9088 23.1899 44.9088 22.5332C44.9088 21.8087 44.9088 21.084 44.9088 20.3594C44.9088 19.6096 44.9088 18.8597 44.9088 18.1099C44.9088 17.3868 44.9088 16.6638 44.9088 15.9407C44.9088 15.296 44.9088 14.6513 44.9088 14.0065C44.9088 13.4834 44.9088 12.9604 44.9088 12.4373V11.3925C44.9088 11.2649 44.9088 11.1373 44.9088 11.0097H44.8962C44.5031 11.0103 44.1098 11.0097 43.7167 11.0097H42.4835H41.2462C41.0018 11.0097 40.7533 11.0007 40.5056 11H40.4526ZM38.5506 18.8121C38.5406 18.8351 38.5506 18.886 38.5506 18.9108V19.7975V20.2119C38.5506 20.2465 38.5346 20.3654 38.5589 20.383C38.5797 20.398 38.6696 20.383 38.6963 20.383H38.8448H39.1305H39.698C39.8844 20.383 40.0711 20.3864 40.2574 20.383C40.4882 20.3788 40.7118 20.3095 40.8758 20.1397C41.0615 19.9475 41.1279 19.6649 41.0714 19.4056C41.0457 19.2908 40.996 19.1833 40.9228 19.0913C40.7823 18.9151 40.573 18.8175 40.3514 18.7994C40.2461 18.7908 40.1398 18.7948 40.0343 18.7948H39.4668H38.8882H38.6065C38.5913 18.7948 38.5811 18.7934 38.5737 18.7934C38.5625 18.7934 38.5575 18.7966 38.5506 18.8121ZM39.7698 21.4233H38.5503C38.5503 21.4396 38.5503 21.456 38.5503 21.4724V22.3592V22.8828V23.074C38.5503 23.1013 38.5394 23.1589 38.5503 23.184C38.5667 23.222 38.7182 23.2006 38.7668 23.2006H39.0754H39.6853H40.2984C40.4977 23.2006 40.6888 23.1877 40.8655 23.078C41.0801 22.9447 41.2263 22.7119 41.263 22.4525C41.3051 22.156 41.2096 21.8491 40.9966 21.6479C40.8242 21.485 40.6104 21.4251 40.3831 21.4233C40.3148 21.4227 40.2467 21.4225 40.1786 21.4225C40.0423 21.4225 39.906 21.4233 39.7698 21.4233Z" fill="white"/>
        </mask>
        <g mask="url(#mask0_148_695)">
        </g>
        <path fill-rule="evenodd" clip-rule="evenodd" d="M21.7174 11.0445C21.257 11.1213 20.8152 11.3035 20.429 11.5719C19.5394 12.1907 19.007 13.2384 19.0031 14.3409C19.002 14.6651 19.0031 14.9892 19.0031 15.3135V17.3781V19.7786V21.7585V22.3561V22.5139C19.0031 22.575 19.0025 22.5622 19.0702 22.5952C19.1454 22.6319 19.221 22.6675 19.2969 22.7022C19.9032 22.9784 20.5426 23.1886 21.2025 23.2714C21.6768 23.3309 22.1834 23.3474 22.6314 23.1529C22.9902 22.997 23.2763 22.7095 23.4232 22.3366C23.5177 22.097 23.5448 21.8438 23.5448 21.5875V18.7458V18.1061V17.902C23.5448 17.8816 23.5336 17.8179 23.5448 17.8008C23.5588 17.7795 23.6697 17.7931 23.7017 17.7931H23.9434H24.42H26.3331V17.8517V20.657C26.3331 20.9863 26.3338 21.3157 26.3331 21.645C26.3325 22.0287 26.2778 22.4138 26.1251 22.7665C25.9729 23.118 25.7289 23.4148 25.4273 23.6407C24.6956 24.189 23.7262 24.3318 22.842 24.3729C22.2095 24.4024 21.5744 24.377 20.9446 24.3123C20.2937 24.2455 19.6353 24.1462 19.0031 23.971V24.1985V25.7583V28.0341V30.0898V30.7439V30.9275C19.0031 30.9372 18.9961 30.9855 19.0031 30.9934C19.0163 31.0082 19.1361 30.9935 19.1598 30.9935H19.3201H19.6481H20.2966H21.5965H22.8969C23.4482 30.9935 24.0137 31.0325 24.5525 30.8925C25.4948 30.6478 26.2954 29.9629 26.703 29.0561C26.9267 28.5584 27 28.0294 27 27.4874V26.5943V25.0897V23.1398V20.9205V18.5796V16.2918V14.2312V12.5471V11.4147V11.0003H26.6768H25.326H23.9746H22.6274C22.5673 11.0003 22.5074 11 22.4475 11C22.2032 11 21.9597 11.004 21.7174 11.0445Z" fill="url(#paint1_linear_148_695)"/>
        <mask id="mask1_148_695" style="mask-type:alpha" maskUnits="userSpaceOnUse" x="19" y="11" width="8" height="20">
        <path fill-rule="evenodd" clip-rule="evenodd" d="M21.7174 11.0445C21.257 11.1213 20.8152 11.3035 20.429 11.5719C19.5394 12.1907 19.007 13.2384 19.0031 14.3409C19.002 14.6651 19.0031 14.9892 19.0031 15.3135V17.3781V19.7786V21.7585V22.3561V22.5139C19.0031 22.575 19.0025 22.5622 19.0702 22.5952C19.1454 22.6319 19.221 22.6675 19.2969 22.7022C19.9032 22.9784 20.5426 23.1886 21.2025 23.2714C21.6768 23.3309 22.1834 23.3474 22.6314 23.1529C22.9902 22.997 23.2763 22.7095 23.4232 22.3366C23.5177 22.097 23.5448 21.8438 23.5448 21.5875V18.7458V18.1061V17.902C23.5448 17.8816 23.5336 17.8179 23.5448 17.8008C23.5588 17.7795 23.6697 17.7931 23.7017 17.7931H23.9434H24.42H26.3331V17.8517V20.657C26.3331 20.9863 26.3338 21.3157 26.3331 21.645C26.3325 22.0287 26.2778 22.4138 26.1251 22.7665C25.9729 23.118 25.7289 23.4148 25.4273 23.6407C24.6956 24.189 23.7262 24.3318 22.842 24.3729C22.2095 24.4024 21.5744 24.377 20.9446 24.3123C20.2937 24.2455 19.6353 24.1462 19.0031 23.971V24.1985V25.7583V28.0341V30.0898V30.7439V30.9275C19.0031 30.9372 18.9961 30.9855 19.0031 30.9934C19.0163 31.0082 19.1361 30.9935 19.1598 30.9935H19.3201H19.6481H20.2966H21.5965H22.8969C23.4482 30.9935 24.0137 31.0325 24.5525 30.8925C25.4948 30.6478 26.2954 29.9629 26.703 29.0561C26.9267 28.5584 27 28.0294 27 27.4874V26.5943V25.0897V23.1398V20.9205V18.5796V16.2918V14.2312V12.5471V11.4147V11.0003H26.6768H25.326H23.9746H22.6274C22.5673 11.0003 22.5074 11 22.4475 11C22.2032 11 21.9597 11.004 21.7174 11.0445Z" fill="white"/>
        </mask>
        <g mask="url(#mask1_148_695)">
        </g>
        <path fill-rule="evenodd" clip-rule="evenodd" d="M31.0042 11.0082C30.6575 11.031 30.3145 11.1119 29.9931 11.2487C29.2847 11.5507 28.6957 12.1144 28.3486 12.8216C28.1214 13.2846 28.0065 13.7993 28.0044 14.3181C28.0041 14.4021 28.0044 14.486 28.0044 14.5701V16.0421V18.659C28.026 18.6397 28.0482 18.6207 28.0707 18.6019C28.15 18.5355 28.2327 18.4734 28.3177 18.4151C28.8475 18.0529 29.4657 17.85 30.0858 17.7302C30.5907 17.6327 31.1047 17.5908 31.6177 17.5806C32.1225 17.5707 32.6287 17.5884 33.1307 17.6447C33.643 17.702 34.1521 17.7913 34.6558 17.9031C34.7176 17.9168 34.7794 17.9309 34.8411 17.9455C34.8741 17.9533 35.0006 17.964 35.0182 17.9902C35.0307 18.0089 35.0182 18.0836 35.0182 18.1052V18.3751V19.3926C34.9466 19.3553 34.8747 19.3187 34.8022 19.2833C34.2542 19.0152 33.6765 18.816 33.077 18.7182C32.2715 18.5865 31.3601 18.5901 30.6645 19.0888C29.9931 19.5702 29.7582 20.4244 29.8307 21.2367C29.9013 22.0272 30.3238 22.7049 31.035 23.021C31.7378 23.3331 32.5532 23.2911 33.2891 23.1406C33.8929 23.017 34.4685 22.7907 35.0182 22.5071V22.6076V23.7935C35.0182 23.8156 35.0309 23.8905 35.0182 23.9095C35.001 23.935 34.8726 23.9458 34.8411 23.9533C34.7126 23.9836 34.5837 24.0121 34.4545 24.0389C33.9471 24.1446 33.4343 24.2284 32.9186 24.2762C32.4138 24.323 31.9039 24.3321 31.3975 24.3124C30.8806 24.2924 30.3631 24.2372 29.8577 24.1213C29.1913 23.9686 28.528 23.7059 28.0044 23.2412V23.4596V24.9868V27.2655V29.484V30.7995C28.0044 30.815 27.9945 30.88 28.0044 30.8925C28.026 30.9196 28.2058 30.8974 28.248 30.8974H28.9044H30.2242H31.5371C32.0004 30.8974 32.4719 30.9229 32.9341 30.8888C33.7723 30.8269 34.5661 30.4169 35.1187 29.7616C35.648 29.1338 35.9091 28.3394 35.9091 27.5114V26.7688V25.3492V23.4318V21.1942V18.8238V16.4788V14.3541V12.61V11.4332V11.0015H35.6667H33.6288H31.5988C31.5029 11.0015 31.4066 11 31.3103 11C31.2081 11 31.1059 11.0017 31.0042 11.0082Z" fill="url(#paint2_linear_148_695)"/>
        <mask id="mask2_148_695" style="mask-type:alpha" maskUnits="userSpaceOnUse" x="28" y="11" width="8" height="20">
        <path fill-rule="evenodd" clip-rule="evenodd" d="M31.0042 11.0082C30.6575 11.031 30.3145 11.1119 29.9931 11.2487C29.2847 11.5507 28.6957 12.1144 28.3486 12.8216C28.1214 13.2846 28.0065 13.7993 28.0044 14.3181C28.0041 14.4021 28.0044 14.486 28.0044 14.5701V16.0421V18.659C28.026 18.6397 28.0482 18.6207 28.0707 18.6019C28.15 18.5355 28.2327 18.4734 28.3177 18.4151C28.8475 18.0529 29.4657 17.85 30.0858 17.7302C30.5907 17.6327 31.1047 17.5908 31.6177 17.5806C32.1225 17.5707 32.6287 17.5884 33.1307 17.6447C33.643 17.702 34.1521 17.7913 34.6558 17.9031C34.7176 17.9168 34.7794 17.9309 34.8411 17.9455C34.8741 17.9533 35.0006 17.964 35.0182 17.9902C35.0307 18.0089 35.0182 18.0836 35.0182 18.1052V18.3751V19.3926C34.9466 19.3553 34.8747 19.3187 34.8022 19.2833C34.2542 19.0152 33.6765 18.816 33.077 18.7182C32.2715 18.5865 31.3601 18.5901 30.6645 19.0888C29.9931 19.5702 29.7582 20.4244 29.8307 21.2367C29.9013 22.0272 30.3238 22.7049 31.035 23.021C31.7378 23.3331 32.5532 23.2911 33.2891 23.1406C33.8929 23.017 34.4685 22.7907 35.0182 22.5071V22.6076V23.7935C35.0182 23.8156 35.0309 23.8905 35.0182 23.9095C35.001 23.935 34.8726 23.9458 34.8411 23.9533C34.7126 23.9836 34.5837 24.0121 34.4545 24.0389C33.9471 24.1446 33.4343 24.2284 32.9186 24.2762C32.4138 24.323 31.9039 24.3321 31.3975 24.3124C30.8806 24.2924 30.3631 24.2372 29.8577 24.1213C29.1913 23.9686 28.528 23.7059 28.0044 23.2412V23.4596V24.9868V27.2655V29.484V30.7995C28.0044 30.815 27.9945 30.88 28.0044 30.8925C28.026 30.9196 28.2058 30.8974 28.248 30.8974H28.9044H30.2242H31.5371C32.0004 30.8974 32.4719 30.9229 32.9341 30.8888C33.7723 30.8269 34.5661 30.4169 35.1187 29.7616C35.648 29.1338 35.9091 28.3394 35.9091 27.5114V26.7688V25.3492V23.4318V21.1942V18.8238V16.4788V14.3541V12.61V11.4332V11.0015H35.6667H33.6288H31.5988C31.5029 11.0015 31.4066 11 31.3103 11C31.2081 11 31.1059 11.0017 31.0042 11.0082Z" fill="white"/>
        </mask>
        <g mask="url(#mask2_148_695)">
        </g>
        <defs>
        <linearGradient id="paint0_linear_148_695" x1="44.9091" y1="10.135" x2="37.2674" y2="10.135" gradientUnits="userSpaceOnUse">
        <stop stop-color="#43C311"/>
        <stop offset="1" stop-color="#288C00"/>
        </linearGradient>
        <linearGradient id="paint1_linear_148_695" x1="19.0206" y1="31.05" x2="27.1006" y2="31.05" gradientUnits="userSpaceOnUse">
        <stop stop-color="#21469E"/>
        <stop offset="1" stop-color="#1E81EB"/>
        </linearGradient>
        <linearGradient id="paint2_linear_148_695" x1="35.9091" y1="11" x2="28" y2="11" gradientUnits="userSpaceOnUse">
        <stop stop-color="#F42D3E"/>
        <stop offset="1" stop-color="#9C0017"/>
        </linearGradient>
        </defs>
    </symbol>

    <symbol viewBox="0 0 64 42" xmlns="http://www.w3.org/2000/svg" id="amexCard">
        <path fill-rule="evenodd" clip-rule="evenodd" d="M0 3C0 1.34315 1.34315 0 3 0H61C62.6569 0 64 1.34315 64 3V39C64 40.6569 62.6569 42 61 42H3C1.34315 42 0 40.6569 0 39V3Z" fill="url(#paint0_radial_148_686)"/>
        <path fill-rule="evenodd" clip-rule="evenodd" d="M0 3C0 1.34315 1.34315 0 3 0H61C62.6569 0 64 1.34315 64 3V39C64 40.6569 62.6569 42 61 42H3C1.34315 42 0 40.6569 0 39V3Z" fill="#E5E5E5" fill-opacity="0.01"/>
        <mask id="path-3-outside-1_148_686" maskUnits="userSpaceOnUse" x="7" y="15" width="51" height="12" fill="black">
        <rect fill="white" x="7" y="15" width="51" height="12"/>
        <path fill-rule="evenodd" clip-rule="evenodd" d="M14.6569 21.9076L15.9906 18.972H16.0192L17.3099 21.9076H14.6569ZM14.872 17L11 25H13.2658L14.0689 23.2185H17.8979L18.6723 25H21.0098L17.1808 17H14.872ZM21.8989 17V25H24.007V19.3866H24.0357L26.5453 25H28.2805L30.7901 19.3305H30.8188V25H32.9269V17H29.7576L27.4918 22.5014H27.4631L25.0682 17H21.8989ZM34.9059 17V25H42.6785V23.521H37.1574V21.5602H42.1192V20.1933H37.1574V18.479H42.5638V17H34.9059ZM46.7083 20.8095L43.1374 25H45.6614L47.9416 22.2325L50.1787 25H52.8604L49.2896 20.8207L52.5736 17H50.107L48.0276 19.5546L46.0199 17H43.4099L46.7083 20.8095Z"/>
        </mask>
        <path fill-rule="evenodd" clip-rule="evenodd" d="M14.6569 21.9076L15.9906 18.972H16.0192L17.3099 21.9076H14.6569ZM14.872 17L11 25H13.2658L14.0689 23.2185H17.8979L18.6723 25H21.0098L17.1808 17H14.872ZM21.8989 17V25H24.007V19.3866H24.0357L26.5453 25H28.2805L30.7901 19.3305H30.8188V25H32.9269V17H29.7576L27.4918 22.5014H27.4631L25.0682 17H21.8989ZM34.9059 17V25H42.6785V23.521H37.1574V21.5602H42.1192V20.1933H37.1574V18.479H42.5638V17H34.9059ZM46.7083 20.8095L43.1374 25H45.6614L47.9416 22.2325L50.1787 25H52.8604L49.2896 20.8207L52.5736 17H50.107L48.0276 19.5546L46.0199 17H43.4099L46.7083 20.8095Z" fill="#1793C0" fill-opacity="0.01"/>
        <path d="M14.6569 21.9076L12.836 21.0803L11.5515 23.9076H14.6569V21.9076ZM15.9906 18.972V16.972H14.7025L14.1697 18.1447L15.9906 18.972ZM16.0192 18.972L17.8501 18.167L17.3247 16.972H16.0192V18.972ZM17.3099 21.9076V23.9076H20.374L19.1408 21.1026L17.3099 21.9076ZM14.872 17V15H13.618L13.0718 16.1287L14.872 17ZM11 25L9.19977 24.1287L7.81007 27H11V25ZM13.2658 25V27H14.5581L15.0891 25.8219L13.2658 25ZM14.0689 23.2185V21.2185H12.7767L12.2456 22.3966L14.0689 23.2185ZM17.8979 23.2185L19.7321 22.4212L19.2093 21.2185H17.8979V23.2185ZM18.6723 25L16.8381 25.7973L17.3608 27H18.6723V25ZM21.0098 25V27H24.1843L22.8138 24.1366L21.0098 25ZM17.1808 17L18.9848 16.1366L18.4409 15H17.1808V17ZM21.8989 17V15H19.8989V17H21.8989ZM21.8989 25H19.8989V27H21.8989V25ZM24.007 25V27H26.007V25H24.007ZM24.007 19.3866V17.3866H22.007V19.3866H24.007ZM24.0357 19.3866L25.8615 18.5703L25.3323 17.3866H24.0357V19.3866ZM26.5453 25L24.7194 25.8163L25.2487 27H26.5453V25ZM28.2805 25V27H29.5824L30.1093 25.8095L28.2805 25ZM30.7901 19.3305V17.3305H29.4882L28.9613 18.521L30.7901 19.3305ZM30.8188 19.3305H32.8188V17.3305H30.8188V19.3305ZM30.8188 25H28.8188V27H30.8188V25ZM32.9269 25V27H34.9269V25H32.9269ZM32.9269 17H34.9269V15H32.9269V17ZM29.7576 17V15H28.4183L27.9083 16.2383L29.7576 17ZM27.4918 22.5014V24.5014H28.831L29.3411 23.2631L27.4918 22.5014ZM27.4631 22.5014L25.6293 23.2997L26.1524 24.5014H27.4631V22.5014ZM25.0682 17L26.902 16.2017L26.3788 15H25.0682V17ZM34.9059 17V15H32.9059V17H34.9059ZM34.9059 25H32.9059V27H34.9059V25ZM42.6785 25V27H44.6785V25H42.6785ZM42.6785 23.521H44.6785V21.521H42.6785V23.521ZM37.1574 23.521H35.1574V25.521H37.1574V23.521ZM37.1574 21.5602V19.5602H35.1574V21.5602H37.1574ZM42.1192 21.5602V23.5602H44.1192V21.5602H42.1192ZM42.1192 20.1933H44.1192V18.1933H42.1192V20.1933ZM37.1574 20.1933H35.1574V22.1933H37.1574V20.1933ZM37.1574 18.479V16.479H35.1574V18.479H37.1574ZM42.5638 18.479V20.479H44.5638V18.479H42.5638ZM42.5638 17H44.5638V15H42.5638V17ZM46.7083 20.8095L48.2305 22.1067L49.3447 20.7991L48.2203 19.5004L46.7083 20.8095ZM43.1374 25L41.6152 23.7028L38.8055 27H43.1374V25ZM45.6614 25V27H46.605L47.205 26.2718L45.6614 25ZM47.9416 22.2325L49.4969 20.9752L47.9563 19.0693L46.398 20.9607L47.9416 22.2325ZM50.1787 25L48.6233 26.2573L49.2237 27H50.1787V25ZM52.8604 25V27H57.1998L54.381 23.7008L52.8604 25ZM49.2896 20.8207L47.7729 19.5171L46.6557 20.8168L47.769 22.1199L49.2896 20.8207ZM52.5736 17L54.0903 18.3037L56.9299 15H52.5736V17ZM50.107 17V15H49.1561L48.5559 15.7374L50.107 17ZM48.0276 19.5546L46.4551 20.7905L48.0002 22.7564L49.5787 20.8172L48.0276 19.5546ZM46.0199 17L47.5924 15.7642L46.9918 15H46.0199V17ZM43.4099 17V15H39.0328L41.8979 18.3091L43.4099 17ZM16.4778 22.7348L17.8114 19.7993L14.1697 18.1447L12.836 21.0803L16.4778 22.7348ZM15.9906 20.972H16.0192V16.972H15.9906V20.972ZM14.1884 19.7769L15.479 22.7125L19.1408 21.1026L17.8501 18.167L14.1884 19.7769ZM17.3099 19.9076H14.6569V23.9076H17.3099V19.9076ZM13.0718 16.1287L9.19977 24.1287L12.8002 25.8713L16.6722 17.8713L13.0718 16.1287ZM11 27H13.2658V23H11V27ZM15.0891 25.8219L15.8922 24.0404L12.2456 22.3966L11.4425 24.1781L15.0891 25.8219ZM14.0689 25.2185H17.8979V21.2185H14.0689V25.2185ZM16.0637 24.0158L16.8381 25.7973L20.5065 24.2027L19.7321 22.4212L16.0637 24.0158ZM18.6723 27H21.0098V23H18.6723V27ZM22.8138 24.1366L18.9848 16.1366L15.3768 17.8634L19.2058 25.8634L22.8138 24.1366ZM17.1808 15H14.872V19H17.1808V15ZM19.8989 17V25H23.8989V17H19.8989ZM21.8989 27H24.007V23H21.8989V27ZM26.007 25V19.3866H22.007V25H26.007ZM24.007 21.3866H24.0357V17.3866H24.007V21.3866ZM22.2098 20.2028L24.7194 25.8163L28.3711 24.1837L25.8615 18.5703L22.2098 20.2028ZM26.5453 27H28.2805V23H26.5453V27ZM30.1093 25.8095L32.619 20.1401L28.9613 18.521L26.4517 24.1905L30.1093 25.8095ZM30.7901 21.3305H30.8188V17.3305H30.7901V21.3305ZM28.8188 19.3305V25H32.8188V19.3305H28.8188ZM30.8188 27H32.9269V23H30.8188V27ZM34.9269 25V17H30.9269V25H34.9269ZM32.9269 15H29.7576V19H32.9269V15ZM27.9083 16.2383L25.6425 21.7397L29.3411 23.2631L31.6069 17.7617L27.9083 16.2383ZM27.4918 20.5014H27.4631V24.5014H27.4918V20.5014ZM29.2969 21.7031L26.902 16.2017L23.2344 17.7983L25.6293 23.2997L29.2969 21.7031ZM25.0682 15H21.8989V19H25.0682V15ZM32.9059 17V25H36.9059V17H32.9059ZM34.9059 27H42.6785V23H34.9059V27ZM44.6785 25V23.521H40.6785V25H44.6785ZM42.6785 21.521H37.1574V25.521H42.6785V21.521ZM39.1574 23.521V21.5602H35.1574V23.521H39.1574ZM37.1574 23.5602H42.1192V19.5602H37.1574V23.5602ZM44.1192 21.5602V20.1933H40.1192V21.5602H44.1192ZM42.1192 18.1933H37.1574V22.1933H42.1192V18.1933ZM39.1574 20.1933V18.479H35.1574V20.1933H39.1574ZM37.1574 20.479H42.5638V16.479H37.1574V20.479ZM44.5638 18.479V17H40.5638V18.479H44.5638ZM42.5638 15H34.9059V19H42.5638V15ZM45.186 19.5123L41.6152 23.7028L44.6597 26.2972L48.2305 22.1067L45.186 19.5123ZM43.1374 27H45.6614V23H43.1374V27ZM47.205 26.2718L49.4851 23.5043L46.398 20.9607L44.1178 23.7282L47.205 26.2718ZM46.3862 23.4898L48.6233 26.2573L51.7341 23.7427L49.4969 20.9752L46.3862 23.4898ZM50.1787 27H52.8604V23H50.1787V27ZM54.381 23.7008L50.8101 19.5215L47.769 22.1199L51.3398 26.2992L54.381 23.7008ZM50.8063 22.1244L54.0903 18.3037L51.0569 15.6963L47.7729 19.5171L50.8063 22.1244ZM52.5736 15H50.107V19H52.5736V15ZM48.5559 15.7374L46.4765 18.2921L49.5787 20.8172L51.6581 18.2626L48.5559 15.7374ZM49.6001 18.3188L47.5924 15.7642L44.4474 18.2358L46.4551 20.7905L49.6001 18.3188ZM46.0199 15H43.4099V19H46.0199V15ZM41.8979 18.3091L45.1962 22.1187L48.2203 19.5004L44.9219 15.6909L41.8979 18.3091Z" fill="white" mask="url(#path-3-outside-1_148_686)"/>
        <defs>
        <radialGradient id="paint0_radial_148_686" cx="0" cy="0" r="1" gradientUnits="userSpaceOnUse" gradientTransform="translate(21.4922 7.96094) rotate(90) scale(42 64)">
        <stop stop-color="#71C8F2"/>
        <stop offset="1" stop-color="#0071BD"/>
        </radialGradient>
        </defs>
    </symbol>

    <symbol viewBox="0 0 64 42" xmlns="http://www.w3.org/2000/svg" id="masterCard">
        <path fill-rule="evenodd" clip-rule="evenodd" d="M0 3C0 1.34315 1.34315 0 3 0H61C62.6569 0 64 1.34315 64 3V39C64 40.6569 62.6569 42 61 42H3C1.34315 42 0 40.6569 0 39V3Z" fill="#F4F6F7"/>
        <path fill-rule="evenodd" clip-rule="evenodd" d="M25 32C31.0751 32 36 27.0751 36 21C36 14.9249 31.0751 10 25 10C18.9249 10 14 14.9249 14 21C14 27.0751 18.9249 32 25 32Z" fill="#D8232A"/>
        <path fill-rule="evenodd" clip-rule="evenodd" d="M32 29.4857C33.9019 31.0564 36.3407 32 39 32C45.0751 32 50 27.0751 50 21C50 14.9249 45.0751 10 39 10C36.3407 10 33.9019 10.9436 32 12.5143C34.443 14.5319 36 17.5841 36 21C36 24.4159 34.443 27.4681 32 29.4857Z" fill="#ED9F2D"/>
        <path fill-rule="evenodd" clip-rule="evenodd" d="M32 12.5146C29.557 14.5322 28 17.5844 28 21.0003C28 24.4162 29.557 27.4684 32 29.486C34.443 27.4684 36 24.4162 36 21.0003C36 17.5844 34.443 14.5322 32 12.5146Z" fill="#D8232A"/>
        <mask id="mask0_148_661" style="mask-type:alpha" maskUnits="userSpaceOnUse" x="28" y="12" width="8" height="18">
        <path fill-rule="evenodd" clip-rule="evenodd" d="M32 12.5146C29.557 14.5322 28 17.5844 28 21.0003C28 24.4162 29.557 27.4684 32 29.486C34.443 27.4684 36 24.4162 36 21.0003C36 17.5844 34.443 14.5322 32 12.5146Z" fill="white"/>
        </mask>
        <g mask="url(#mask0_148_661)">
        <path fill-rule="evenodd" clip-rule="evenodd" d="M27 13H37V14H27V13ZM27 15H37V16H27V15ZM37 17H27V18H37V17ZM27 19H37V20H27V19ZM37 21H27V22H37V21ZM27 23H37V24H27V23ZM37 25H27V26H37V25ZM27 27H37V28H27V27ZM37 29H27V30H37V29Z" fill="#ED9F2D"/>
        </g>
        <path fill-rule="evenodd" clip-rule="evenodd" d="M0 3C0 1.34315 1.34315 0 3 0H61C62.6569 0 64 1.34315 64 3V39C64 40.6569 62.6569 42 61 42H3C1.34315 42 0 40.6569 0 39V3Z" fill="#E5E5E5" fill-opacity="0.01"/>
    </symbol>

    <symbol viewBox="0 0 64 42" xmlns="http://www.w3.org/2000/svg"  id="visaCard">
        <path fill-rule="evenodd" clip-rule="evenodd" d="M0 3C0 1.34315 1.34315 0 3 0H61C62.6569 0 64 1.34315 64 3V39C64 40.6569 62.6569 42 61 42H3C1.34315 42 0 40.6569 0 39V3Z" fill="#F4F6F7"/>
        <path fill-rule="evenodd" clip-rule="evenodd" d="M0 3C0 1.34315 1.34315 0 3 0H61C62.6569 0 64 1.34315 64 3V10H0V3Z" fill="#4095DB"/>
        <path fill-rule="evenodd" clip-rule="evenodd" d="M0 32H64V39C64 40.6569 62.6569 42 61 42H3C1.34315 42 0 40.6569 0 39V32Z" fill="#F4B662"/>
        <path fill-rule="evenodd" clip-rule="evenodd" d="M39.2295 15.4879C38.657 15.2546 37.7567 15 36.635 15C33.7724 15 31.7574 16.5778 31.7407 18.8367C31.7225 20.5075 33.1786 21.4396 34.2764 21.995C35.4046 22.5643 35.7837 22.9286 35.7792 23.4376C35.7714 24.2162 34.8787 24.5729 34.0462 24.5729C32.887 24.5729 32.2711 24.3973 31.3189 23.9633L30.9464 23.7782L30.5415 26.3804C31.2167 26.7042 32.4683 26.9852 33.7673 27C36.8096 27 38.7864 25.4415 38.8096 23.0292C38.82 21.7042 38.0485 20.6996 36.3775 19.8704C35.3657 19.3315 34.7447 18.9744 34.7518 18.4288C34.7525 17.9455 35.2764 17.4284 36.4105 17.4284C37.3576 17.4126 38.0432 17.6387 38.5774 17.875L38.8374 18.008L39.2295 15.4879ZM25.8315 26.8276L27.6428 15.2026H30.5382L28.727 26.8276H25.8315ZM44.2383 19.4568C44.2383 19.4568 43.3249 22.0379 43.0849 22.7061H45.4886C45.3742 22.1249 44.8186 19.3502 44.8186 19.3502L44.6232 18.3476C44.546 18.5776 44.4384 18.8823 44.3565 19.1143L44.3561 19.1152L44.356 19.1156C44.2829 19.3225 44.2304 19.4712 44.2383 19.4568ZM46.657 15.2144H44.4193C43.7253 15.2144 43.2058 15.4201 42.9018 16.1781L38.6019 26.8318H41.643C41.643 26.8318 42.1392 25.3986 42.2518 25.084C42.4077 25.084 43.1431 25.0854 43.9226 25.0868H43.9226L43.923 25.0868C44.8019 25.0884 45.7368 25.09 45.9603 25.09C46.047 25.4957 46.3128 26.8318 46.3128 26.8318H49.0002L46.657 15.2144ZM23.4024 15.2124L20.5685 23.1379L20.2649 21.5268L19.2503 16.1853C19.0752 15.4486 18.5665 15.2302 17.9377 15.2045H13.2686L13.23 15.4453C14.3659 15.7464 15.3817 16.1806 16.2719 16.7205L18.8467 26.8175L21.911 26.8156L26.4707 15.2124H23.4024Z" fill="#0071CE"/>
        <path fill-rule="evenodd" clip-rule="evenodd" d="M0 3C0 1.34315 1.34315 0 3 0H61C62.6569 0 64 1.34315 64 3V39C64 40.6569 62.6569 42 61 42H3C1.34315 42 0 40.6569 0 39V3Z" fill="#E5E5E5" fill-opacity="0.01"/>
    </symbol>

    <symbol viewBox="0 0 25 25" xmlns="http://www.w3.org/2000/svg" id="standorte">
        <g clip-path="url(#clip0_101_16)">
        <path fill-rule="evenodd" clip-rule="evenodd" d="M22.5786 1.07643C22.6872 1.14363 22.7769 1.23745 22.8391 1.34902C22.9013 1.46059 22.934 1.58619 22.9341 1.71393V24.2139C22.9341 24.4128 22.8551 24.6036 22.7144 24.7443C22.5738 24.8849 22.383 24.9639 22.1841 24.9639H17.6841C17.4852 24.9639 17.2944 24.8849 17.1538 24.7443C17.0131 24.6036 16.9341 24.4128 16.9341 24.2139V21.9639H15.4341V24.2139C15.4341 24.4128 15.3551 24.6036 15.2144 24.7443C15.0738 24.8849 14.883 24.9639 14.6841 24.9639H1.18408C0.98517 24.9639 0.794404 24.8849 0.653752 24.7443C0.5131 24.6036 0.434082 24.4128 0.434082 24.2139V15.9639C0.434202 15.8066 0.483804 15.6533 0.575869 15.5257C0.667935 15.3981 0.797799 15.3027 0.947082 15.2529L9.43408 12.4239V7.71393C9.43409 7.57477 9.47281 7.43835 9.54593 7.31993C9.61904 7.20152 9.72366 7.10578 9.84808 7.04343L21.8481 1.04343C21.9625 0.986144 22.0898 0.959099 22.2176 0.964876C22.3455 0.970652 22.4698 1.00906 22.5786 1.07643V1.07643ZM9.43408 14.0049L1.93408 16.5039V23.4639H9.43408V14.0049ZM10.9341 23.4639H13.9341V21.2139C13.9341 21.015 14.0131 20.8243 14.1538 20.6836C14.2944 20.543 14.4852 20.4639 14.6841 20.4639H17.6841C17.883 20.4639 18.0738 20.543 18.2144 20.6836C18.3551 20.8243 18.4341 21.015 18.4341 21.2139V23.4639H21.4341V2.92744L10.9341 8.17743V23.4639Z"/>
        <path d="M3.43408 17.464H4.93408V18.964H3.43408V17.464ZM6.43408 17.464H7.93408V18.964H6.43408V17.464ZM3.43408 20.464H4.93408V21.964H3.43408V20.464ZM6.43408 20.464H7.93408V21.964H6.43408V20.464ZM12.4341 14.464H13.9341V15.964H12.4341V14.464ZM15.4341 14.464H16.9341V15.964H15.4341V14.464ZM12.4341 17.464H13.9341V18.964H12.4341V17.464ZM15.4341 17.464H16.9341V18.964H15.4341V17.464ZM18.4341 14.464H19.9341V15.964H18.4341V14.464ZM18.4341 17.464H19.9341V18.964H18.4341V17.464ZM12.4341 11.464H13.9341V12.964H12.4341V11.464ZM15.4341 11.464H16.9341V12.964H15.4341V11.464ZM18.4341 11.464H19.9341V12.964H18.4341V11.464ZM12.4341 8.46399H13.9341V9.96399H12.4341V8.46399ZM15.4341 8.46399H16.9341V9.96399H15.4341V8.46399ZM18.4341 8.46399H19.9341V9.96399H18.4341V8.46399ZM18.4341 5.46399H19.9341V6.96399H18.4341V5.46399Z"/>
        </g>
        <defs>
        <clipPath id="clip0_101_16">
        <rect width="24" height="24" fill="white" transform="translate(0.434082 0.963989)"/>
        </clipPath>
        </defs>
    </symbol>

    <svg viewBox="0 0 1024 1024" xmlns="http://www.w3.org/2000/svg" id="task-completed">
        <path d="M699 353H652.1C641.9 353 632.2 357.9 626.2 366.3L469 584.3L397.8 485.5C391.8 477.2 382.2 472.2 371.9 472.2H325C318.5 472.2 314.7 479.6 318.5 484.9L443.1 657.7C446.043 661.808 449.924 665.156 454.419 667.465C458.915 669.775 463.896 670.979 468.95 670.979C474.004 670.979 478.985 669.775 483.481 667.465C487.976 665.156 491.856 661.808 494.8 657.7L705.4 365.7C709.3 360.4 705.5 353 699 353V353Z" fill="black"/>
        <path d="M512 64C264.6 64 64 264.6 64 512C64 759.4 264.6 960 512 960C759.4 960 960 759.4 960 512C960 264.6 759.4 64 512 64ZM512 884C306.6 884 140 717.4 140 512C140 306.6 306.6 140 512 140C717.4 140 884 306.6 884 512C884 717.4 717.4 884 512 884Z" fill="black"/>
    </svg>


</svg>
